<?xml version="1.0" encoding="UTF-8"?><svg xmlns="http://www.w3.org/2000/svg" xmlns:xlink="http://www.w3.org/1999/xlink" data-name="Layer 1" height="447.7" preserveAspectRatio="xMidYMid meet" version="1.0" viewBox="0.0 0.0 447.7 447.7" width="447.7" zoomAndPan="magnify"><g id="change1_1"><path d="M447.71 0L444.88 0 237.29 207.59 377.92 0 373.09 0 233.57 205.95 320.34 0 316 0 229.67 204.9 270.5 0 266.42 0 225.85 203.58 225.85 0 221.85 0 221.85 202.86 182.85 0 178.77 0 218.06 204.32 134.88 0 130.56 0 214.56 206.34 76.79 0 71.98 0 210.93 208.1 2.83 0 0 0 0 2.83 207.6 210.42 0 69.79 0 74.62 205.95 214.14 0 127.37 0 131.71 204.9 218.04 0 177.22 0 181.29 203.57 221.85 0 221.85 0 225.85 202.86 225.85 0 264.86 0 268.94 204.32 229.65 0 312.83 0 317.15 206.34 233.14 0 370.92 0 375.73 208.11 236.77 0 444.88 0 447.71 2.83 447.71 210.42 240.11 69.79 447.71 74.62 447.71 214.14 241.76 127.37 447.71 131.71 447.71 218.04 242.81 177.21 447.71 181.29 447.71 221.85 244.13 221.85 447.71 225.85 447.71 225.85 244.85 264.86 447.71 268.94 447.71 229.65 243.38 312.83 447.71 317.15 447.71 233.15 241.37 370.92 447.71 375.73 447.71 236.77 239.6 444.88 447.71 447.71 447.71 447.71 444.88 240.12 237.29 447.71 377.92 447.71 373.09 241.76 233.57 447.71 320.34 447.71 316 242.81 229.67 447.71 270.5 447.71 266.42 244.13 225.85 447.71 225.85 447.71 221.85 244.85 221.85 447.71 182.84 447.71 178.77 243.39 218.06 447.71 134.88 447.71 130.56 241.37 214.56 447.71 76.79 447.71 71.98 239.6 210.93 447.71 2.83 447.71 0z" fill="inherit"/></g></svg>