<?xml version="1.0" encoding="UTF-8" standalone="no"?><svg xmlns="http://www.w3.org/2000/svg" xmlns:xlink="http://www.w3.org/1999/xlink" fill="#000000" height="185.7" preserveAspectRatio="xMidYMid meet" version="1" viewBox="0.0 0.0 263.7 185.7" width="263.7" zoomAndPan="magnify"><g id="change1_1"><path d="M263.737,67.782c0-6.678-8.573-12.999-24.463-18.252c15.89-5.253,24.463-11.574,24.463-18.252 c0-8.477-13.802-16.378-38.862-22.25C200.026,3.206,166.996,0,131.869,0S63.711,3.206,38.863,9.028C13.802,14.899,0,22.801,0,31.278 c0,6.678,8.573,12.999,24.463,18.252C8.573,54.783,0,61.103,0,67.782c0,4.398,3.724,8.641,10.8,12.526 C3.724,84.193,0,88.435,0,92.833c0,5.505,5.828,10.767,16.774,15.389C5.828,112.844,0,118.105,0,123.611S5.828,134.378,16.774,139 C5.828,143.622,0,148.884,0,154.389c0,8.477,13.802,16.378,38.863,22.25c24.849,5.821,57.879,9.027,93.006,9.027 s68.157-3.206,93.006-9.027c25.061-5.872,38.862-13.773,38.862-22.25c0-5.505-5.828-10.767-16.774-15.389 c10.946-4.622,16.774-9.884,16.774-15.389s-5.828-10.767-16.774-15.389c10.947-4.622,16.774-9.883,16.774-15.389 c0-4.398-3.724-8.641-10.8-12.526C260.012,76.422,263.737,72.18,263.737,67.782z M1,31.278C1,14.582,59.707,1,131.869,1 s130.868,13.583,130.868,30.278c0,6.632-9.27,12.771-24.96,17.764c-3.893-1.235-8.199-2.409-12.902-3.51 c-24.849-5.822-57.879-9.028-93.006-9.028s-68.157,3.206-93.006,9.028c-4.703,1.102-9.009,2.275-12.902,3.51 C10.27,44.049,1,37.909,1,31.278z M131.869,98.059c-17.958,0-35.082-0.842-50.677-2.363c15.594-1.521,32.718-2.363,50.677-2.363 s35.082,0.842,50.677,2.363C166.951,97.217,149.827,98.059,131.869,98.059z M187.363,96.195c23.86,2.595,43.801,6.809,57.167,12.027 c-22.811,8.905-64.769,14.889-112.661,14.889s-89.851-5.984-112.662-14.889c13.367-5.218,33.308-9.432,57.167-12.027 c17.161,1.874,36.002,2.864,55.494,2.864C151.361,99.059,170.201,98.068,187.363,96.195z M131.869,92.333 c-19.492,0-38.333,0.991-55.494,2.864c-28.086-3.055-50.747-8.353-63.641-14.89c20.632-10.462,66.271-17.752,119.134-17.752 s98.502,7.29,119.134,17.752c-12.893,6.538-35.554,11.835-63.64,14.89C170.201,93.324,151.361,92.333,131.869,92.333z M236.214,49.53c-23.916,7.301-61.788,12.026-104.346,12.026S51.439,56.83,27.523,49.53c23.916-7.301,61.789-12.026,104.346-12.026 S212.298,42.229,236.214,49.53z M1,67.782C1,61.15,10.27,55.01,25.961,50.017c3.893,1.235,8.199,2.409,12.902,3.51 c19.19,4.496,43.27,7.424,69.417,8.528c-26.147,1.104-50.227,4.032-69.417,8.528c-11.485,2.691-20.597,5.809-27.108,9.212 C4.842,76.11,1,72.048,1,67.782z M1,92.833c0-4.267,3.842-8.329,10.755-12.014c6.511,3.404,15.623,6.522,27.108,9.212 c9.894,2.318,21.1,4.213,33.204,5.665c-12.104,1.451-23.31,3.347-33.204,5.665c-8.203,1.922-15.192,4.063-20.893,6.369 C7.174,103.329,1,98.245,1,92.833z M1,123.611c0-5.412,6.174-10.495,16.97-14.896c5.701,2.306,12.69,4.447,20.893,6.369 c19.19,4.496,43.27,7.423,69.417,8.527c-26.147,1.104-50.227,4.032-69.417,8.528c-8.203,1.922-15.191,4.062-20.893,6.368 C7.174,134.106,1,129.022,1,123.611z M131.869,124.111c47.892,0,89.85,5.984,112.661,14.889 c-22.811,8.905-64.769,14.889-112.661,14.889S42.018,147.905,19.208,139C42.018,130.095,83.977,124.111,131.869,124.111z M262.737,154.389c0,16.695-58.707,30.277-130.868,30.277S1,171.084,1,154.389c0-5.412,6.174-10.495,16.97-14.896 c5.701,2.306,12.69,4.447,20.893,6.369c24.849,5.821,57.878,9.027,93.006,9.027c35.127,0,68.157-3.206,93.006-9.027 c8.203-1.922,15.191-4.063,20.893-6.369C256.562,143.894,262.737,148.977,262.737,154.389z M262.737,123.611 c0,5.412-6.175,10.496-16.97,14.897c-5.701-2.306-12.689-4.446-20.892-6.368c-19.19-4.497-43.27-7.424-69.417-8.528 c26.147-1.104,50.227-4.032,69.417-8.527c8.203-1.922,15.191-4.063,20.893-6.369C256.562,113.115,262.737,118.199,262.737,123.611z M262.737,92.833c0,5.412-6.174,10.495-16.97,14.896c-5.701-2.306-12.689-4.447-20.893-6.369c-9.894-2.318-21.1-4.213-33.204-5.665 c12.104-1.451,23.31-3.347,33.204-5.665c11.485-2.691,20.597-5.809,27.107-9.212C258.895,84.504,262.737,88.567,262.737,92.833z M251.982,79.796c-6.511-3.403-15.623-6.521-27.107-9.212c-19.19-4.496-43.27-7.424-69.417-8.528 c26.147-1.104,50.227-4.032,69.417-8.528c4.703-1.102,9.009-2.275,12.902-3.51c15.69,4.993,24.96,11.133,24.96,17.764 C262.737,72.048,258.895,76.11,251.982,79.796z" fill="#000000"/></g></svg>