<?xml version="1.0" encoding="UTF-8"?><svg xmlns="http://www.w3.org/2000/svg" xmlns:xlink="http://www.w3.org/1999/xlink" data-name="Layer 1" height="448.5" preserveAspectRatio="xMidYMid meet" version="1.0" viewBox="-0.0 -0.2 448.2 448.5" width="448.2" zoomAndPan="magnify"><g id="change1_1"><path d="M447.14,229l-93.47-61.87,89.9,30a2,2,0,0,0,.63.1,2,2,0,0,0,.64-3.9l-92.55-30.83h84.46a2,2,0,0,0,0-4H350.48l74.11-29.24a2,2,0,0,0-1.47-3.72l-74.54,29.41,58.66-56.74a2,2,0,1,0-2.78-2.87l-58,56.06L385,70.23a2,2,0,0,0-3.61-1.71l-37.57,79.13,14.64-101.4a2,2,0,1,0-4-.57l-14.2,98.41L328.38,26.9a2,2,0,1,0-4,.4L336,141.17,295.57,12.68a2,2,0,1,0-3.81,1.2l39.42,125.33L260.94,3.91a2,2,0,0,0-3.56,1.85l68.85,132.6L225.36.82a2,2,0,1,0-3.22,2.36l103,140.41L179.54,5.27a2,2,0,0,0-2.83.08,2,2,0,0,0,.07,2.82l139,132.07L145.27,15.15a2,2,0,1,0-2.37,3.22l169,124L113,30.35a2,2,0,0,0-2,3.49l197.61,111.3-225-94.65a2,2,0,0,0-1.56,3.69L306,148.34,57.82,75.05a2,2,0,1,0-1.13,3.83l247.19,73L36.26,103.39a2,2,0,0,0-.71,3.94l266.82,48.36L19.5,134.79a2,2,0,0,0-.3,4l282.22,20.85L8,168.45a2,2,0,0,0,.06,4h.06l293-8.81L1.92,203.51a2,2,0,0,0,.26,4h.26l298.74-39.82L1.54,239.07A2,2,0,0,0,2,243a1.82,1.82,0,0,0,.46-.06l299.39-71.35L6.82,274.23a2,2,0,0,0,.66,3.88,1.91,1.91,0,0,0,.66-.11L303,175.44,17.63,308.08a2,2,0,0,0,.85,3.81,1.94,1.94,0,0,0,.84-.19L304.63,179.1,33.69,339.77a2,2,0,0,0,1,3.72,2,2,0,0,0,1-.28l271-160.69-252.1,186a2,2,0,0,0,1.19,3.61A1.94,1.94,0,0,0,57,371.7l252.21-186L79.78,393.5A2,2,0,0,0,81.12,397a2,2,0,0,0,1.34-.52L312,188.47,108.62,414.18a2,2,0,0,0,.15,2.82,2,2,0,0,0,1.34.52,2,2,0,0,0,1.48-.67l203.65-226L140.38,430a2,2,0,0,0,1.61,3.18,2,2,0,0,0,1.62-.82L318.74,192.88,174.24,440.55a2,2,0,0,0,.72,2.73,1.91,1.91,0,0,0,1,.27,2,2,0,0,0,1.73-1l144.8-248.18L209.33,445.57a2,2,0,0,0,1,2.64,2,2,0,0,0,.82.18,2,2,0,0,0,1.82-1.18L326.45,195.33,244.77,444.94a2,2,0,0,0,1.28,2.52,1.88,1.88,0,0,0,.62.11,2,2,0,0,0,1.9-1.38l82-250.5-50.9,243a2,2,0,0,0,1.55,2.37,1.9,1.9,0,0,0,.41,0,2,2,0,0,0,1.95-1.59l51.14-244.11L313.06,427a2,2,0,0,0,1.8,2.17h.19a2,2,0,0,0,2-1.81l21.77-233,5.36,215.72a2,2,0,0,0,2,1.95h.05a2,2,0,0,0,1.95-2l-5.41-217.41,29.43,195.89a2,2,0,0,0,2,1.71l.3,0a2,2,0,0,0,1.68-2.27L346.41,190l50,172.72a2,2,0,0,0,1.92,1.44,1.85,1.85,0,0,0,.56-.08,2,2,0,0,0,1.36-2.47l-50.66-175,66.63,146.86a2,2,0,0,0,1.82,1.18,2,2,0,0,0,1.82-2.83L352.07,182.32l79.05,119a2,2,0,0,0,1.67.89,2,2,0,0,0,1.1-.33,2,2,0,0,0,.56-2.77L353.66,177.48l87.1,89.9a2,2,0,0,0,1.44.61,2,2,0,0,0,1.43-3.39L354.2,172.29l90.73,60.05a2,2,0,0,0,1.1.33,2,2,0,0,0,1.11-3.66Z" fill="inherit"/></g></svg>