<?xml version="1.0" encoding="UTF-8"?><svg xmlns="http://www.w3.org/2000/svg" xmlns:xlink="http://www.w3.org/1999/xlink" height="190.3" preserveAspectRatio="xMidYMid meet" version="1.0" viewBox="0.0 0.0 131.6 190.3" width="131.6" zoomAndPan="magnify"><g fill="#222" id="change1_1"><path d="M65.8,190.3c-0.5,0-1-0.2-1.3-0.6C61.9,186.3,0,106.9,0,65.8C0,29.5,29.5,0,65.8,0s65.8,29.5,65.8,65.8 c0,40.3-61.9,120.5-64.5,123.9C66.8,190,66.3,190.3,65.8,190.3C65.8,190.3,65.8,190.3,65.8,190.3z M65.8,3.2 C31.3,3.2,3.2,31.3,3.2,65.8c0,16.5,11,42.7,31.8,75.9c13.2,21.1,26.6,38.9,30.7,44.3c9-11.9,62.5-84.1,62.5-120.2 C128.3,31.3,100.3,3.2,65.8,3.2z"/><path d="M65.8,102.7c-20.4,0-36.9-16.6-36.9-36.9s16.6-36.9,36.9-36.9s36.9,16.6,36.9,36.9S86.1,102.7,65.8,102.7z M65.8,32.1c-18.6,0-33.7,15.1-33.7,33.7s15.1,33.7,33.7,33.7s33.7-15.1,33.7-33.7S84.3,32.1,65.8,32.1z"/></g></svg>