<?xml version="1.0" encoding="UTF-8"?><svg xmlns="http://www.w3.org/2000/svg" xmlns:xlink="http://www.w3.org/1999/xlink" data-name="Layer 1" height="492.3" preserveAspectRatio="xMidYMid meet" version="1.0" viewBox="-0.1 -0.1 492.2 492.3" width="492.2" zoomAndPan="magnify"><g id="change1_1"><path d="M490.85,238.3a2,2,0,0,0-2.18.43l-76,76v-154a2,2,0,0,0-1.24-1.84,2,2,0,0,0-2.18.43l-76,76v-154A2,2,0,0,0,329.9,80l-76,76V2A2,2,0,0,0,250.52.59L.59,250.62A2,2,0,0,0,2,254H155.9L80,330a2,2,0,0,0-.44,2.18,2,2,0,0,0,1.85,1.23H235.29l-75.94,76a2,2,0,0,0,1.41,3.41H314.67l-75.94,76a2,2,0,0,0,1.41,3.41H490.08a2,2,0,0,0,2-2v-250A2,2,0,0,0,490.85,238.3ZM6.83,250,249.94,6.83V160L159.9,250Zm243.11-84.42V250H165.56ZM86.21,329.42,161.56,254h90.38a2,2,0,0,0,2-2V161.62l75.38-75.41V239.35l-90,90.07ZM329.32,245v84.41H244.94ZM165.59,408.8l75.35-75.38h90.38a2,2,0,0,0,2-2V241l75.38-75.42V318.73l-90,90.07ZM408.7,324.39V408.8H324.32Zm79.38,163.79H245l75.35-75.38H410.7a2,2,0,0,0,2-2V320.39L488.08,245Z" fill="inherit"/></g></svg>