<?xml version="1.0" encoding="UTF-8"?><svg xmlns="http://www.w3.org/2000/svg" xmlns:xlink="http://www.w3.org/1999/xlink" data-name="Layer 1" height="412.8" preserveAspectRatio="xMidYMid meet" version="1.0" viewBox="0.0 0.0 423.1 412.8" width="423.1" zoomAndPan="magnify"><g id="change1_1"><path d="M423.12,164.73C423.12,73.9,349.22,0,258.39,0A164.54,164.54,0,0,0,127.58,64.74,165.79,165.79,0,0,0,80.75,106.4,164.8,164.8,0,0,0,0,248.06c0,90.83,73.9,164.73,164.73,164.73a164.54,164.54,0,0,0,130.81-64.74,166.08,166.08,0,0,0,46.83-41.66A164.8,164.8,0,0,0,423.12,164.73ZM121.34,73.44a165.26,165.26,0,0,0-11,19.13,166.11,166.11,0,0,0-20.22,8.65A162,162,0,0,1,121.34,73.44Zm137,252c-88.62,0-160.73-72.11-160.73-160.73A159.8,159.8,0,0,1,113.21,95.8a160.07,160.07,0,0,1,51.52-8.47c88.62,0,160.73,72.1,160.73,160.73A159.66,159.66,0,0,1,309.9,317,160,160,0,0,1,258.39,325.46Zm49-3.45a161.06,161.06,0,0,1-14.56,23,159.71,159.71,0,0,1-81.28,22.12c-88.63,0-160.73-72.1-160.73-160.73a159.88,159.88,0,0,1,32.62-96.94,160.16,160.16,0,0,1,24.48-11.74,163.78,163.78,0,0,0-14.27,67c0,90.83,73.9,164.73,164.73,164.73A164.06,164.06,0,0,0,307.4,322Zm22.06-73.95c0-90.83-73.9-164.73-164.73-164.73a164.38,164.38,0,0,0-49,7.44,162.19,162.19,0,0,1,14.56-23,159.78,159.78,0,0,1,81.28-22.11c88.62,0,160.73,72.1,160.73,160.72a159.89,159.89,0,0,1-32.62,96.95,160.16,160.16,0,0,1-24.48,11.74A163.81,163.81,0,0,0,329.46,248.06ZM164.73,408.79C76.1,408.79,4,336.68,4,248.06A160.67,160.67,0,0,1,74.51,115.11a163.71,163.71,0,0,0-27.68,91.28c0,90.83,73.9,164.73,164.73,164.73a163.84,163.84,0,0,0,74.62-17.89A160.45,160.45,0,0,1,164.73,408.79Zm137-69.45a164.43,164.43,0,0,0,11-19.13A163.69,163.69,0,0,0,333,311.56,162,162,0,0,1,301.78,339.34Zm46.83-41.66a163.82,163.82,0,0,0,27.68-91.29c0-90.83-73.9-164.72-164.73-164.72a163.71,163.71,0,0,0-74.62,17.89A160.43,160.43,0,0,1,258.39,4C347,4,419.12,76.1,419.12,164.73A160.67,160.67,0,0,1,348.61,297.68Z" fill="inherit"/></g></svg>