<?xml version="1.0" encoding="UTF-8"?><svg xmlns="http://www.w3.org/2000/svg" xmlns:xlink="http://www.w3.org/1999/xlink" data-name="Layer 1" height="487.2" preserveAspectRatio="xMidYMid meet" version="1.0" viewBox="-21.1 -21.1 487.2 487.2" width="487.2" zoomAndPan="magnify"><g id="change1_1"><path d="M222.52,288.16a58.43,58.43,0,1,0,58.42,58.43A58.49,58.49,0,0,0,222.52,288.16Zm0,112.85a54.43,54.43,0,1,1,54.42-54.42A54.49,54.49,0,0,1,222.52,401Z" fill="inherit"/></g><g id="change1_2"><path d="M222.52,256.15a76.66,76.66,0,1,0,76.65,76.65A76.74,76.74,0,0,0,222.52,256.15Zm0,149.31a72.66,72.66,0,1,1,72.65-72.66A72.74,72.74,0,0,1,222.52,405.46Z" fill="inherit"/></g><g id="change1_3"><path d="M222.52,224.13A94.89,94.89,0,1,0,317.4,319,95,95,0,0,0,222.52,224.13Zm0,185.77A90.89,90.89,0,1,1,313.4,319,91,91,0,0,1,222.52,409.9Z" fill="inherit"/></g><g id="change1_4"><path d="M222.52,192.11A113.12,113.12,0,1,0,335.64,305.23,113.24,113.24,0,0,0,222.52,192.11Zm0,222.24A109.12,109.12,0,1,1,331.64,305.23,109.24,109.24,0,0,1,222.52,414.35Z" fill="inherit"/></g><g id="change1_5"><path d="M222.52,160.09c-72.43,0-131.36,58.93-131.36,131.35S150.09,422.8,222.52,422.8s131.35-58.93,131.35-131.36S294.94,160.09,222.52,160.09Zm0,258.71A127.36,127.36,0,1,1,349.87,291.44,127.5,127.5,0,0,1,222.52,418.8Z" fill="inherit"/></g><g id="change1_6"><path d="M222.52,128.07c-82.49,0-149.59,67.11-149.59,149.59S140,427.24,222.52,427.24,372.1,360.14,372.1,277.66,305,128.07,222.52,128.07Zm0,295.17c-80.28,0-145.59-65.31-145.59-145.58s65.31-145.59,145.59-145.59S368.1,197.38,368.1,277.66,302.79,423.24,222.52,423.24Z" fill="inherit"/></g><g id="change1_7"><path d="M222.52,96.05C130,96.05,54.7,171.34,54.7,263.87S130,431.69,222.52,431.69s167.81-75.28,167.81-167.82S315.05,96.05,222.52,96.05Zm0,331.64c-90.33,0-163.82-73.49-163.82-163.82s73.49-163.82,163.82-163.82,163.81,73.49,163.81,163.82S312.85,427.69,222.52,427.69Z" fill="inherit"/></g><g id="change1_8"><path d="M222.52,64C119.93,64,36.46,147.5,36.46,250.09s83.47,186,186.06,186,186-83.46,186-186S325.1,64,222.52,64Zm0,368.1c-100.39,0-182.06-81.67-182.06-182S122.13,68,222.52,68s182,81.66,182,182.05S322.9,432.14,222.52,432.14Z" fill="inherit"/></g><g id="change1_9"><path d="M222.52,32C109.87,32,18.23,123.66,18.23,236.3s91.64,204.28,204.29,204.28S426.8,348.94,426.8,236.3,335.16,32,222.52,32Zm0,404.56c-110.44,0-200.29-89.84-200.29-200.28S112.08,36,222.52,36,422.8,125.87,422.8,236.3,333,436.58,222.52,436.58Z" fill="inherit"/></g><g id="change1_10"><path d="M379.86,65.17A222.52,222.52,0,0,0,65.17,379.86,222.52,222.52,0,0,0,379.86,65.17ZM377,377A218.52,218.52,0,0,1,68,68,218.52,218.52,0,0,1,377,377Z" fill="inherit"/></g></svg>